<svg width="12" height="12" viewBox="0 0 12 12" fill="none" xmlns="http://www.w3.org/2000/svg">
<path d="M2.23661 0.955642C1.95162 0.681453 1.48995 0.681453 1.20495 0.955642C0.919963 1.22983 0.919963 1.674 1.20495 1.94766L5.41692 5.99999L1.20495 10.0523C0.919963 10.326 0.919963 10.7707 1.20495 11.0444C1.48995 11.3185 1.95162 11.3185 2.23661 11.0444L6.44803 6.99254L10.66 11.0444C10.9444 11.3185 11.4067 11.3185 11.6911 11.0444C11.9761 10.7707 11.9761 10.326 11.6911 10.0523L7.47969 5.99999L11.6911 1.94766C11.9761 1.674 11.9761 1.22983 11.6911 0.955642C11.4067 0.681453 10.945 0.681453 10.66 0.955642L6.44803 5.00744L2.23661 0.955642Z" fill="white"/>
</svg>
