<svg width="12" height="12" viewBox="0 0 12 12" fill="none" xmlns="http://www.w3.org/2000/svg">
<path d="M1.94771 0.955642C1.67352 0.681453 1.22934 0.681453 0.955154 0.955642C0.680964 1.22983 0.680964 1.674 0.955154 1.94766L5.00748 5.99999L0.955154 10.0523C0.680964 10.326 0.680964 10.7707 0.955154 11.0444C1.22934 11.3185 1.67352 11.3185 1.94771 11.0444L5.99951 6.99254L10.0518 11.0444C10.3255 11.3185 10.7702 11.3185 11.0439 11.0444C11.3181 10.7707 11.3181 10.326 11.0439 10.0523L6.99207 5.99999L11.0439 1.94766C11.3181 1.674 11.3181 1.22983 11.0439 0.955642C10.7702 0.681453 10.326 0.681453 10.0518 0.955642L5.99951 5.00744L1.94771 0.955642Z" fill="#111111"/>
</svg>
