<svg width="22" height="19" viewBox="0 0 22 19" fill="none" xmlns="http://www.w3.org/2000/svg">
<path d="M16.7143 18.143L16.388 18.5219C16.4829 18.6036 16.605 18.6467 16.7301 18.6428L16.7143 18.143ZM15.0225 15.8298C14.8514 15.6131 14.537 15.5761 14.3202 15.7472C14.1035 15.9183 14.0665 16.2328 14.2376 16.4495L15.0225 15.8298ZM15.7602 15.1122L15.5863 14.6434C15.5796 14.6459 15.5731 14.6485 15.5665 14.6512L15.7602 15.1122ZM13.2774 15.8485L13.1934 15.3556L13.1853 15.3571L13.2774 15.8485ZM8.84247 15.8315L8.74768 16.3224L8.75072 16.323L8.84247 15.8315ZM6.32535 15.0952L6.14312 15.5608L6.1436 15.561L6.32535 15.0952ZM5.07522 14.513L4.79721 14.9286C4.80818 14.9359 4.81944 14.9428 4.83096 14.9492L5.07522 14.513ZM4.92118 14.4273L5.19875 14.0114C5.18143 13.9998 5.16341 13.9894 5.14478 13.9801L4.92118 14.4273ZM4.8527 14.376L5.20625 14.0225C5.17341 13.9896 5.13615 13.9615 5.09555 13.939L4.8527 14.376ZM7.76231 16.4151C7.93338 16.1984 7.89634 15.8839 7.67958 15.7129C7.46281 15.5418 7.1484 15.5788 6.97733 15.7956L7.76231 16.4151ZM5.28571 18.143L5.26989 18.6428C5.39718 18.6468 5.52121 18.6021 5.61668 18.5178L5.28571 18.143ZM1 14.9239H0.5C0.5 14.9507 0.502146 14.9774 0.506417 15.0038L1 14.9239ZM3.46573 2.79808L3.16573 2.39809C3.08916 2.45551 3.03069 2.53371 2.99725 2.62338L3.46573 2.79808ZM8.27733 1.00014L8.77508 0.952736C8.75104 0.700287 8.54181 0.505816 8.28828 0.500262L8.27733 1.00014ZM7.95084 2.84561C7.97702 3.12051 8.22109 3.32213 8.49599 3.29595C8.77089 3.26977 8.97251 3.02569 8.94633 2.7508L7.95084 2.84561ZM12.9869 2.80298C12.9517 3.07687 13.1452 3.32743 13.4191 3.36261C13.693 3.39778 13.9436 3.20427 13.9787 2.93038L12.9869 2.80298ZM13.7225 1.00026L13.7116 0.50038C13.4643 0.505809 13.2581 0.691232 13.2266 0.936563L13.7225 1.00026ZM18.5341 2.7982L19.0026 2.62349C18.9692 2.53382 18.9107 2.45564 18.8342 2.39821L18.5341 2.7982ZM21 14.9239L21.4936 15.0038C21.4979 14.9774 21.5 14.9507 21.5 14.9239H21ZM9.54444 11.4307L9.04444 11.4225V11.4307H9.54444ZM16.7143 18.143C17.0406 17.7642 17.0406 17.7642 17.0406 17.7642C17.0406 17.7642 17.0406 17.7642 17.0406 17.7642C17.0405 17.7641 17.0405 17.7641 17.0404 17.764C17.0403 17.7639 17.04 17.7637 17.0397 17.7634C17.039 17.7628 17.0379 17.7619 17.0365 17.7607C17.0337 17.7582 17.0294 17.7545 17.0238 17.7497C17.0125 17.7399 16.9957 17.7253 16.9741 17.7065C16.9309 17.6689 16.8684 17.6143 16.7917 17.5466C16.6381 17.4111 16.4283 17.224 16.203 17.0171C15.7412 16.593 15.2505 16.1186 15.0225 15.8298L14.2376 16.4495C14.5234 16.8115 15.0747 17.3387 15.5266 17.7536C15.7582 17.9662 15.9731 18.1579 16.1301 18.2964C16.2086 18.3657 16.2728 18.4219 16.3175 18.4608C16.3398 18.4802 16.3573 18.4954 16.3693 18.5057C16.3752 18.5109 16.3799 18.5149 16.383 18.5176C16.3846 18.5189 16.3858 18.52 16.3866 18.5207C16.387 18.5211 16.3874 18.5213 16.3876 18.5215C16.3877 18.5216 16.3878 18.5217 16.3879 18.5218C16.3879 18.5218 16.3879 18.5218 16.3879 18.5218C16.388 18.5219 16.388 18.5219 16.7143 18.143ZM17.4544 13.6844C16.784 14.1259 16.1501 14.4342 15.5863 14.6434L15.9342 15.5809C16.569 15.3454 17.2707 15.0028 18.0044 14.5196L17.4544 13.6844ZM15.5665 14.6512C14.7432 14.9971 13.958 15.2254 13.1934 15.3556L13.3613 16.3414C14.2063 16.1975 15.065 15.9466 15.9539 15.5731L15.5665 14.6512ZM13.1853 15.3571C11.6133 15.6518 10.17 15.5706 8.93422 15.3399L8.75072 16.323C10.0834 16.5717 11.6536 16.6617 13.3695 16.34L13.1853 15.3571ZM8.93725 15.3405C7.99762 15.1591 7.18817 14.8951 6.5071 14.6294L6.1436 15.561C6.86647 15.843 7.7351 16.1269 8.74768 16.3224L8.93725 15.3405ZM6.50758 14.6296C6.12743 14.4808 5.72164 14.3018 5.31948 14.0767L4.83096 14.9492C5.28516 15.2035 5.7355 15.4013 6.14312 15.5608L6.50758 14.6296ZM5.35323 14.0974C5.2976 14.0602 5.24451 14.0342 5.22195 14.023C5.19301 14.0085 5.19462 14.0086 5.19875 14.0114L4.64361 14.8432C4.69912 14.8802 4.75212 14.9061 4.77454 14.9173C4.80333 14.9317 4.80157 14.9315 4.79721 14.9286L5.35323 14.0974ZM5.14478 13.9801C5.15902 13.9872 5.17573 13.9975 5.19236 14.0108C5.20623 14.0219 5.21569 14.0319 5.20625 14.0225L4.49915 14.7296C4.52739 14.7578 4.59025 14.8208 4.69757 14.8745L5.14478 13.9801ZM5.09555 13.939C4.95033 13.8583 4.83853 13.7903 4.7644 13.7435C4.72735 13.7201 4.69976 13.702 4.68216 13.6903C4.67337 13.6844 4.66707 13.6801 4.66335 13.6776C4.66149 13.6763 4.66027 13.6755 4.6597 13.6751C4.65942 13.6749 4.6593 13.6748 4.65934 13.6748C4.65936 13.6749 4.65942 13.6749 4.65953 13.675C4.65958 13.675 4.65964 13.675 4.65971 13.6751C4.65975 13.6751 4.65979 13.6752 4.65983 13.6752C4.65985 13.6752 4.65988 13.6752 4.65989 13.6752C4.65993 13.6752 4.65996 13.6753 4.37325 14.0849C4.08653 14.4945 4.08657 14.4946 4.08661 14.4946C4.08662 14.4946 4.08666 14.4946 4.08668 14.4946C4.08673 14.4947 4.08679 14.4947 4.08685 14.4947C4.08696 14.4948 4.08708 14.4949 4.08722 14.495C4.08749 14.4952 4.0878 14.4954 4.08816 14.4957C4.08887 14.4962 4.08975 14.4968 4.09079 14.4975C4.09288 14.4989 4.09564 14.5008 4.09907 14.5032C4.10591 14.5079 4.11541 14.5143 4.12748 14.5223C4.15162 14.5384 4.18611 14.561 4.2304 14.589C4.31894 14.6449 4.44687 14.7225 4.60985 14.8131L5.09555 13.939ZM6.97733 15.7956C6.74767 16.0866 6.25487 16.5709 5.79327 17.0034C5.56771 17.2148 5.35772 17.4063 5.20404 17.5451C5.12726 17.6144 5.06468 17.6704 5.0214 17.709C4.99977 17.7283 4.98297 17.7432 4.97164 17.7533C4.96598 17.7583 4.96169 17.7621 4.95885 17.7646C4.95743 17.7659 4.95637 17.7668 4.95568 17.7674C4.95534 17.7677 4.95509 17.768 4.95493 17.7681C4.95486 17.7682 4.9548 17.7682 4.95477 17.7682C4.95476 17.7682 4.95475 17.7682 4.95474 17.7683C4.95474 17.7683 4.95475 17.7682 5.28571 18.143C5.61668 18.5178 5.6167 18.5178 5.61672 18.5178C5.61674 18.5178 5.61677 18.5177 5.6168 18.5177C5.61687 18.5176 5.61696 18.5176 5.61707 18.5175C5.61729 18.5173 5.61761 18.517 5.61803 18.5166C5.61885 18.5159 5.62006 18.5148 5.62162 18.5134C5.62475 18.5107 5.62934 18.5066 5.63531 18.5013C5.64724 18.4907 5.66469 18.4752 5.687 18.4553C5.73161 18.4155 5.79573 18.3581 5.87421 18.2873C6.03105 18.1457 6.24578 17.9498 6.47704 17.7331C6.92909 17.3095 7.47834 16.7749 7.76231 16.4151L6.97733 15.7956ZM5.30154 17.6433C3.56823 17.5884 2.63441 16.8626 2.12226 16.1866C1.85993 15.8403 1.70067 15.4963 1.60747 15.2395C1.56105 15.1116 1.5316 15.0069 1.5142 14.9369C1.50551 14.9019 1.49987 14.8757 1.49664 14.8597C1.49502 14.8517 1.49401 14.8463 1.49353 14.8436C1.49329 14.8423 1.49318 14.8416 1.49319 14.8417C1.4932 14.8417 1.49323 14.842 1.4933 14.8424C1.49333 14.8426 1.49337 14.8428 1.49342 14.8431C1.49344 14.8432 1.49348 14.8435 1.4935 14.8436C1.49354 14.8438 1.49358 14.8441 1 14.9239C0.506417 15.0038 0.506465 15.0041 0.506516 15.0044C0.506535 15.0045 0.506588 15.0048 0.506627 15.0051C0.506705 15.0056 0.506792 15.0061 0.506887 15.0067C0.507078 15.0078 0.507304 15.0091 0.507565 15.0107C0.508088 15.0137 0.508756 15.0175 0.509579 15.0221C0.511224 15.0311 0.513493 15.0431 0.516474 15.0579C0.522434 15.0874 0.531259 15.1279 0.543671 15.1778C0.568467 15.2777 0.607757 15.4161 0.667469 15.5807C0.786537 15.9087 0.989144 16.3469 1.3252 16.7905C2.00982 17.6941 3.21886 18.5778 5.26989 18.6428L5.30154 17.6433ZM1.5 14.9239C1.5 12.2306 2.10399 9.2476 2.7164 6.92064C3.02163 5.76087 3.32689 4.77166 3.55564 4.07296C3.66998 3.72373 3.76511 3.44739 3.83143 3.25896C3.86458 3.16476 3.89053 3.09255 3.90806 3.04422C3.91683 3.02006 3.92349 3.00187 3.9279 2.98988C3.93011 2.98389 3.93175 2.97945 3.93281 2.97659C3.93334 2.97516 3.93372 2.97413 3.93396 2.97349C3.93407 2.97317 3.93416 2.97296 3.9342 2.97284C3.93422 2.97278 3.93423 2.97277 3.93424 2.97274C3.93423 2.97275 3.93422 2.97279 3.46573 2.79808C2.99725 2.62338 2.99721 2.62347 2.99717 2.62358C2.99715 2.62365 2.99709 2.62379 2.99704 2.62394C2.99694 2.62422 2.99679 2.62461 2.99661 2.62509C2.99625 2.62606 2.99574 2.62744 2.99508 2.62921C2.99377 2.63274 2.99188 2.63787 2.98942 2.64456C2.9845 2.65793 2.97731 2.67754 2.96802 2.70315C2.94944 2.75438 2.92241 2.82961 2.88814 2.92698C2.81961 3.12169 2.7221 3.405 2.60528 3.76181C2.37171 4.4752 2.06054 5.48363 1.74933 6.66612C1.12888 9.02366 0.5 12.1036 0.5 14.9239H1.5ZM3.76574 3.19808C4.93506 2.32108 6.07312 1.89673 6.91471 1.69136C7.33557 1.58867 7.6815 1.54095 7.91865 1.51885C8.03715 1.50781 8.12827 1.50319 8.18771 1.50129C8.21743 1.50034 8.2392 1.50007 8.2525 1.50001C8.25915 1.49998 8.26367 1.50001 8.26601 1.50003C8.26718 1.50004 8.2678 1.50005 8.26787 1.50005C8.2679 1.50005 8.26779 1.50005 8.26755 1.50005C8.26742 1.50004 8.26726 1.50004 8.26707 1.50004C8.26697 1.50004 8.2668 1.50003 8.26675 1.50003C8.26657 1.50003 8.26638 1.50002 8.27733 1.00014C8.28828 0.500262 8.28808 0.500258 8.28786 0.500253C8.28778 0.500251 8.28755 0.500247 8.28738 0.500243C8.28705 0.500237 8.28667 0.500229 8.28627 0.500222C8.28545 0.500206 8.28449 0.50019 8.28338 0.500172C8.28117 0.500138 8.27839 0.500102 8.27505 0.500072C8.26836 0.500011 8.25941 0.499974 8.24827 0.500021C8.22601 0.500115 8.19497 0.500546 8.15573 0.501802C8.07725 0.504314 7.96583 0.510127 7.82588 0.523165C7.54613 0.549228 7.15148 0.604244 6.67765 0.719868C5.72988 0.951142 4.46214 1.42576 3.16573 2.39809L3.76574 3.19808ZM7.77959 1.04755L7.95084 2.84561L8.94633 2.7508L8.77508 0.952736L7.77959 1.04755ZM13.9787 2.93038L14.2185 1.06396L13.2266 0.936563L12.9869 2.80298L13.9787 2.93038ZM13.7225 1.00026C13.7335 1.50014 13.7333 1.50014 13.7332 1.50015C13.7331 1.50015 13.7329 1.50015 13.7328 1.50015C13.7326 1.50016 13.7325 1.50016 13.7324 1.50016C13.7321 1.50017 13.732 1.50017 13.732 1.50017C13.7321 1.50017 13.7327 1.50016 13.7339 1.50015C13.7362 1.50013 13.7408 1.5001 13.7474 1.50013C13.7607 1.50018 13.7825 1.50045 13.8122 1.5014C13.8716 1.5033 13.9627 1.50792 14.0813 1.51896C14.3184 1.54104 14.6643 1.58875 15.0852 1.69144C15.9268 1.89679 17.0648 2.32114 18.2341 3.19819L18.8342 2.39821C17.5377 1.42582 16.27 0.951201 15.3222 0.71994C14.8484 0.604323 14.4537 0.549317 14.174 0.523264C14.034 0.510231 13.9226 0.504422 13.8441 0.501914C13.8049 0.50066 13.7739 0.50023 13.7516 0.500137C13.7404 0.500091 13.7315 0.500128 13.7248 0.500189C13.7215 0.500219 13.7187 0.500256 13.7165 0.50029C13.7154 0.500307 13.7144 0.500324 13.7136 0.500339C13.7132 0.500347 13.7128 0.500354 13.7125 0.500361C13.7123 0.500364 13.7121 0.500369 13.712 0.500371C13.7118 0.500376 13.7116 0.50038 13.7225 1.00026ZM18.5341 2.7982C18.0657 2.97292 18.0657 2.97288 18.0656 2.97287C18.0657 2.9729 18.0657 2.97291 18.0657 2.97297C18.0657 2.97308 18.0658 2.9733 18.0659 2.97362C18.0662 2.97426 18.0665 2.97529 18.0671 2.97672C18.0681 2.97958 18.0698 2.98402 18.072 2.99001C18.0764 3.002 18.0831 3.02019 18.0918 3.04435C18.1094 3.09268 18.1353 3.16488 18.1685 3.25909C18.2348 3.44751 18.3299 3.72385 18.4443 4.07307C18.673 4.77175 18.9783 5.76095 19.2835 6.9207C19.896 9.24764 20.5 12.2306 20.5 14.9239H21.5C21.5 12.1035 20.8711 9.02368 20.2506 6.66617C19.9394 5.4837 19.6282 4.47528 19.3946 3.7619C19.2778 3.4051 19.1803 3.12179 19.1117 2.92708C19.0775 2.82972 19.0504 2.75448 19.0319 2.70326C19.0226 2.67765 19.0154 2.65804 19.0105 2.64467C19.008 2.63798 19.0061 2.63285 19.0048 2.62931C19.0041 2.62754 19.0036 2.62617 19.0033 2.6252C19.0031 2.62471 19.0029 2.62433 19.0028 2.62404C19.0028 2.6239 19.0027 2.62376 19.0027 2.62369C19.0027 2.62358 19.0026 2.62349 18.5341 2.7982ZM21 14.9239C20.5064 14.8441 20.5065 14.8438 20.5065 14.8435C20.5065 14.8435 20.5066 14.8432 20.5066 14.8431C20.5066 14.8428 20.5067 14.8425 20.5067 14.8423C20.5068 14.8419 20.5068 14.8417 20.5068 14.8417C20.5068 14.8416 20.5067 14.8423 20.5065 14.8436C20.506 14.8463 20.505 14.8517 20.5034 14.8597C20.5001 14.8756 20.4945 14.9018 20.4858 14.9368C20.4684 15.0069 20.4389 15.1116 20.3925 15.2395C20.2993 15.4963 20.14 15.8403 19.8777 16.1866C19.3655 16.8626 18.4317 17.5884 16.6985 17.6433L16.7301 18.6428C18.7811 18.5778 19.9901 17.6941 20.6748 16.7905C21.0108 16.3469 21.2134 15.9087 21.3325 15.5807C21.3922 15.4161 21.4315 15.2777 21.4563 15.1779C21.4687 15.1279 21.4776 15.0874 21.4835 15.0579C21.4865 15.0432 21.4888 15.0311 21.4904 15.0221C21.4912 15.0175 21.4919 15.0137 21.4924 15.0107C21.4927 15.0092 21.4929 15.0078 21.4931 15.0067C21.4932 15.0061 21.4933 15.0056 21.4934 15.0051C21.4934 15.0049 21.4935 15.0045 21.4935 15.0044C21.4935 15.0041 21.4936 15.0038 21 14.9239ZM7.79788 9.03011C6.50389 9.03011 5.55144 10.1539 5.55144 11.4307H6.55144C6.55144 10.6186 7.13989 10.0301 7.79788 10.0301V9.03011ZM5.55144 11.4307C5.55144 12.7109 6.52399 13.8314 7.79788 13.8314V12.8314C7.15397 12.8314 6.55144 12.2397 6.55144 11.4307H5.55144ZM7.79788 13.8314C9.092 13.8314 10.0444 12.7076 10.0444 11.4307H9.04444C9.04444 12.243 8.45599 12.8314 7.79788 12.8314V13.8314ZM10.0444 11.4389C10.0656 10.1478 9.08481 9.03011 7.79788 9.03011V10.0301C8.46294 10.0301 9.05765 10.6247 9.04451 11.4225L10.0444 11.4389ZM14.048 9.03011C12.7539 9.03011 11.8013 10.1538 11.8013 11.4307H12.8013C12.8013 10.6186 13.3898 10.0301 14.048 10.0301V9.03011ZM11.8013 11.4307C11.8013 12.711 12.7741 13.8314 14.048 13.8314V12.8314C13.404 12.8314 12.8013 12.2396 12.8013 11.4307H11.8013ZM14.048 13.8314C15.342 13.8314 16.2944 12.7076 16.2944 11.4307H15.2944C15.2944 12.243 14.7059 12.8314 14.048 12.8314V13.8314ZM16.2944 11.4307C16.2944 10.1539 15.342 9.03011 14.048 9.03011V10.0301C14.7059 10.0301 15.2944 10.6186 15.2944 11.4307H16.2944ZM5.52511 5.01053C7.60416 3.87668 9.31913 3.33552 11.0032 3.33469C12.6871 3.33386 14.3997 3.87314 16.474 5.01003L16.9546 4.13311C14.7971 2.9506 12.9153 2.33374 11.0028 2.33469C9.09049 2.33564 7.2071 2.95418 5.04632 4.13261L5.52511 5.01053Z" fill="#D4D6D7"/>
</svg>
