<svg width="26" height="26" viewBox="0 0 26 26" fill="none" xmlns="http://www.w3.org/2000/svg">
<path d="M2.96697 0.50921C2.28802 -0.169737 1.18816 -0.169737 0.50921 0.50921C-0.169737 1.18816 -0.169737 2.28799 0.50921 2.96564L10.5436 13L0.50921 23.0343C-0.169737 23.712 -0.169737 24.8131 0.50921 25.4908C1.18816 26.1697 2.28802 26.1697 2.96697 25.4908L13 15.4577L23.0343 25.4908C23.712 26.1697 24.8131 26.1697 25.4908 25.4908C26.1697 24.8131 26.1697 23.712 25.4908 23.0343L15.4578 13L25.4908 2.96564C26.1697 2.28799 26.1697 1.18816 25.4908 0.50921C24.8131 -0.169737 23.7133 -0.169737 23.0343 0.50921L13 10.5422L2.96697 0.50921Z" fill="#FF1CF7"/>
</svg>
