<svg width="18" height="18" viewBox="0 0 18 18" fill="none" xmlns="http://www.w3.org/2000/svg">
<path d="M3 6C1.343 6 0 4.657 0 3C0 1.343 1.343 0 3 0C4.657 0 6 1.343 6 3C6 3.125 5.992 3.249 5.97701 3.371L12.917 6.841C13.457 6.32 14.191 6 15 6C16.657 6 18 7.343 18 9C18 10.657 16.657 12 15 12C14.191 12 13.457 11.68 12.917 11.159L5.97701 14.629C5.992 14.751 6 14.875 6 15C6 16.657 4.657 18 3 18C1.343 18 0 16.657 0 15C0 13.343 1.343 12 3 12C3.809 12 4.54299 12.32 5.08299 12.841L12.023 9.371C12.008 9.249 12 9.125 12 9C12 8.875 12.008 8.751 12.023 8.629L5.08299 5.159C4.54299 5.68 3.809 6 3 6Z" fill="#263238"/>
</svg>
